<?xml version="1.0" encoding="UTF-8"?>
<svg width="32px" height="32px" viewBox="0 0 32 32" version="1.1" xmlns="http://www.w3.org/2000/svg" xmlns:xlink="http://www.w3.org/1999/xlink">
    <title>Icon / Graphic  / icon-aftereffect</title>
    <g id="Icon-/-Graphic--/-icon-aftereffect" stroke="none" stroke-width="1" fill="none" fill-rule="evenodd">
        <circle id="Oval" fill="#00005B" fill-rule="nonzero" cx="16" cy="16" r="15.4666667"></circle>
        <g id="Outlined_Mnemonics_Logos" transform="translate(6.400000, 9.600000)" fill="#9999FF" fill-rule="nonzero">
            <g id="Ae">
                <path d="M7.18933333,8.53333333 L3.22133333,8.53333333 L2.41066667,11.0506667 C2.38933333,11.1466667 2.304,11.2106667 2.208,11.2 L0.202666667,11.2 C0.0853333333,11.2 0.0533333333,11.136 0.0853333333,11.008 L3.52,1.16266667 C3.552,1.056 3.584,0.96 3.62666667,0.832 C3.66933333,0.608 3.69066667,0.373333333 3.69066667,0.138666667 C3.68,0.0853333333 3.72266667,0.032 3.776,0.0213333333 C3.78666667,0.0213333333 3.79733333,0.0213333333 3.808,0.0213333333 L6.53866667,0.0213333333 C6.61333333,0.0213333333 6.66666667,0.0533333333 6.67733333,0.106666667 L10.5706667,11.04 C10.6026667,11.1573333 10.5706667,11.2106667 10.464,11.2106667 L8.23466667,11.2106667 C8.16,11.2213333 8.08533333,11.168 8.064,11.0933333 L7.18933333,8.53333333 Z M3.84,6.41066667 L6.54933333,6.41066667 C6.48533333,6.18666667 6.4,5.92 6.304,5.64266667 C6.208,5.35466667 6.112,5.04533333 6.016,4.72533333 C5.90933333,4.39466667 5.81333333,4.07466667 5.70666667,3.744 C5.6,3.41333333 5.504,3.104 5.41866667,2.79466667 C5.33333333,2.496 5.25866667,2.21866667 5.184,1.96266667 L5.16266667,1.96266667 C5.06666667,2.42133333 4.94933333,2.88 4.8,3.33866667 C4.64,3.85066667 4.48,4.384 4.30933333,4.91733333 C4.17066667,5.46133333 4,5.96266667 3.84,6.41066667 Z" id="Shape"></path>
                <path d="M16.896,7.552 L13.5146667,7.552 C13.5573333,7.88266667 13.664,8.21333333 13.8453333,8.50133333 C14.0373333,8.78933333 14.304,9.01333333 14.624,9.14133333 C15.0506667,9.32266667 15.52,9.41866667 15.9893333,9.408 C16.3626667,9.39733333 16.736,9.36533333 17.0986667,9.29066667 C17.4293333,9.248 17.7493333,9.16266667 18.048,9.04533333 C18.1013333,9.00266667 18.1333333,9.024 18.1333333,9.13066667 L18.1333333,10.7626667 C18.1333333,10.8053333 18.1226667,10.848 18.112,10.8906667 C18.0906667,10.9226667 18.0693333,10.944 18.0373333,10.9653333 C17.696,11.1146667 17.344,11.2213333 16.9706667,11.2853333 C16.4693333,11.3813333 15.968,11.424 15.456,11.4133333 C14.6453333,11.4133333 13.9626667,11.2853333 13.408,11.04 C12.8853333,10.816 12.4266667,10.464 12.064,10.0266667 C11.7226667,9.61066667 11.4773333,9.14133333 11.328,8.62933333 C11.1786667,8.128 11.104,7.60533333 11.104,7.072 C11.104,6.496 11.1893333,5.93066667 11.3706667,5.376 C11.5413333,4.84266667 11.808,4.352 12.1706667,3.91466667 C12.5226667,3.488 12.96,3.14666667 13.4613333,2.90133333 C13.9626667,2.656 14.56,2.57066667 15.2426667,2.57066667 C15.808,2.56 16.3733333,2.66666667 16.896,2.90133333 C17.3333333,3.09333333 17.7173333,3.38133333 18.016,3.75466667 C18.2933333,4.11733333 18.5173333,4.52266667 18.656,4.97066667 C18.7946667,5.39733333 18.8586667,5.83466667 18.8586667,6.272 C18.8586667,6.528 18.848,6.752 18.8373333,6.95466667 C18.816,7.15733333 18.8053333,7.30666667 18.7946667,7.40266667 C18.784,7.47733333 18.72,7.54133333 18.6453333,7.54133333 C18.5813333,7.54133333 18.464,7.552 18.2933333,7.56266667 C18.1226667,7.584 17.92,7.59466667 17.6746667,7.59466667 C17.4293333,7.59466667 17.1733333,7.552 16.896,7.552 Z M13.5146667,5.99466667 L15.7653333,5.99466667 C16.0426667,5.99466667 16.2453333,5.99466667 16.3733333,5.984 C16.4586667,5.97333333 16.544,5.952 16.6186667,5.89866667 L16.6186667,5.792 C16.6186667,5.65333333 16.5973333,5.52533333 16.5546667,5.39733333 C16.3626667,4.8 15.7973333,4.39466667 15.168,4.416 C14.5813333,4.384 14.0266667,4.69333333 13.7493333,5.22666667 C13.6213333,5.472 13.5466667,5.728 13.5146667,5.99466667 Z" id="Shape"></path>
            </g>
        </g>
    </g>
</svg>