<?xml version="1.0" encoding="UTF-8"?>
<svg width="32px" height="32px" viewBox="0 0 32 32" version="1.1" xmlns="http://www.w3.org/2000/svg" xmlns:xlink="http://www.w3.org/1999/xlink">
    <title>Icon / Graphic  / icon-invision</title>
    <g id="Icon-/-Graphic--/-icon-invision" stroke="none" stroke-width="1" fill="none" fill-rule="evenodd">
        <g id="icon-invision" fill-rule="nonzero">
            <circle id="Oval" fill="#DC395F" cx="16" cy="16" r="16"></circle>
            <path d="M12.3733333,11.008 C13.2010908,10.9962576 13.8637339,10.3177833 13.8559332,9.48997925 C13.8481325,8.66217521 13.1728213,7.99630891 12.3449895,8.00015096 C11.5171577,8.00402638 10.8480833,8.67615922 10.848,9.504 C10.8493985,9.90616245 11.0112375,10.2911368 11.2976066,10.5735007 C11.5839756,10.8558646 11.9711911,11.0122657 12.3733333,11.008 M9.21066667,19.0666667 C9.12064679,19.4370052 9.07234632,19.8162533 9.06666667,20.1973333 C9.06666667,21.52 9.792,22.4 11.3173333,22.4 C12.5866667,22.4 13.6106667,21.648 14.352,20.432 L13.8986667,22.2453333 L16.416,22.2453333 L17.8506667,16.48 C18.2133333,15.024 18.9173333,14.2666667 19.984,14.2666667 C20.3530926,14.2367104 20.7165398,14.3715057 20.9768381,14.6348905 C21.2371364,14.8982753 21.3676382,15.2632861 21.3333333,15.632 C21.3362051,15.9066523 21.2966271,16.1800997 21.216,16.4426667 L20.48,19.1093333 C20.3735159,19.4731235 20.3196365,19.8502793 20.32,20.2293333 C20.32,21.488 21.0613333,22.4053333 22.6133333,22.4053333 C23.936,22.4053333 24.992,21.5573333 25.5733333,19.5093333 L24.5866667,19.1306667 C24.0906667,20.5013333 23.664,20.7306667 23.328,20.7306667 C22.992,20.7306667 22.7946667,20.5066667 22.7946667,20.0586667 C22.8060577,19.8223536 22.8436207,19.5880325 22.9066667,19.36 L23.6266667,16.7786667 C23.7891166,16.2480588 23.8717977,15.6962519 23.872,15.1413333 C23.872,13.2106667 22.7093333,12.2026667 21.2906667,12.2026667 C19.968,12.2026667 18.624,13.3973333 17.9466667,14.656 L18.4426667,12.4 L14.6026667,12.4 L14.0693333,14.3893333 L15.8666667,14.3893333 L14.7573333,18.816 C13.8666667,20.7466667 12.2666667,20.8 12.0853333,20.736 C11.7546667,20.6613333 11.552,20.5333333 11.552,20.1066667 C11.5634094,19.7583382 11.6171372,19.4126898 11.712,19.0773333 L13.3866667,12.4 L9.12,12.4 L8.58666667,14.3893333 L10.3573333,14.3893333 L9.216,19.0666667" id="Shape" fill="#FFFFFF"></path>
        </g>
    </g>
</svg>