<?xml version="1.0" encoding="UTF-8"?>
<svg width="32px" height="32px" viewBox="0 0 32 32" version="1.1" xmlns="http://www.w3.org/2000/svg" xmlns:xlink="http://www.w3.org/1999/xlink">
    <title>Icon / Graphic  / icon-principle</title>
    <defs>
        <linearGradient x1="77.5215413%" y1="8.95330918%" x2="77.5215413%" y2="73.8114312%" id="linearGradient-1">
            <stop stop-color="#D378E5" offset="0%"></stop>
            <stop stop-color="#7526C2" offset="100%"></stop>
        </linearGradient>
    </defs>
    <g id="Icon-/-Graphic--/-icon-principle" stroke="none" stroke-width="1" fill="none" fill-rule="evenodd">
        <circle id="Oval" fill="#FFFFFF" fill-rule="nonzero" cx="16" cy="16" r="16"></circle>
        <path d="M9.10933238,22.6506667 L9.10933238,12.9173333 C9.10729014,8.84859151 12.3893277,5.54084719 16.4579617,5.51094514 C20.5265956,5.48144583 23.8565734,8.740923 23.9139302,12.809261 C23.9712869,16.8775991 20.7345208,20.2296564 16.6666667,20.3146667 L16.6666667,20.3146667 C15.5120234,20.3235032 14.5688366,19.3946433 14.5600001,18.24 C14.5511635,17.0853567 15.4800234,16.1421699 16.6346667,16.1333333 L16.6346667,16.1333333 C18.3810635,16.0546649 19.7411218,14.5890343 19.6892564,12.841636 C19.6373909,11.0942378 18.1927993,9.71185342 16.444811,9.7369036 C14.6968226,9.76195378 13.2924376,11.1851664 13.2906667,12.9333333 L13.2906667,23.7066667 C13.2847968,24.8571422 12.3504905,25.7866684 11.2,25.7866684 C10.7696983,25.7872242 10.3500381,25.6529329 10,25.4026667 C10.4915975,25.2435644 10.8609722,24.8342837 10.9689844,24.3289967 C11.0769965,23.8237097 10.9072364,23.2991814 10.523651,22.9529966 C10.1400656,22.6068119 9.60093079,22.4915644 9.10933238,22.6506667 L9.10933238,22.6506667 Z M16.6666667,19.6693333 C17.4649022,19.6693333 18.112,19.0222356 18.112,18.224 C18.112,17.4257644 17.4649022,16.7786667 16.6666667,16.7786667 C15.8684311,16.7786667 15.2213333,17.4257644 15.2213333,18.224 C15.2213333,19.0222356 15.8684311,19.6693333 16.6666667,19.6693333 Z" id="Shape" fill="url(#linearGradient-1)" fill-rule="nonzero"></path>
        <path d="M16,0 C24.836556,0 32,7.163444 32,16 C32,24.836556 24.836556,32 16,32 C7.163444,32 0,24.836556 0,16 C0,7.163444 7.163444,0 16,0 Z M16,1 C7.71572875,1 1,7.71572875 1,16 C1,24.2842712 7.71572875,31 16,31 C24.2842712,31 31,24.2842712 31,16 C31,7.71572875 24.2842712,1 16,1 Z" id="border" fill="#EBF8FF" fill-rule="nonzero"></path>
    </g>
</svg>