<?xml version="1.0" encoding="UTF-8"?>
<svg width="32px" height="32px" viewBox="0 0 32 32" version="1.1" xmlns="http://www.w3.org/2000/svg" xmlns:xlink="http://www.w3.org/1999/xlink">
    <title>01-Icons/Graphic/icon-wordpress</title>
    <g id="01-Icons/Graphic/icon-wordpress" stroke="none" stroke-width="1" fill="none" fill-rule="evenodd">
        <circle id="Oval" fill="#FFFFFF" fill-rule="nonzero" cx="16" cy="16" r="16"></circle>
        <path d="M16,0 C24.836556,0 32,7.163444 32,16 C32,24.836556 24.836556,32 16,32 C7.163444,32 0,24.836556 0,16 C0,7.163444 7.163444,0 16,0 Z M16,1 C7.71572875,1 1,7.71572875 1,16 C1,24.2842712 7.71572875,31 16,31 C24.2842712,31 31,24.2842712 31,16 C31,7.71572875 24.2842712,1 16,1 Z" id="border" fill="#EBF8FF" fill-rule="nonzero"></path>
        <path d="M15.9997552,6 C21.5133154,6 26,10.4857052 26,15.9994287 C26,21.5138051 21.5133154,25.9993471 15.9997552,25.9993471 C10.4860317,25.9993471 6,21.5138051 6,15.9994287 C6,10.4857052 10.4860317,6 15.9997552,6 Z M15.9997552,6.45851119 C10.7387107,6.45851119 6.45851119,10.7385474 6.45851119,15.9994287 C6.45851119,21.2606364 10.7388739,25.5409991 15.9997552,25.5409991 C21.2604732,25.5409991 25.5405094,21.2606364 25.5405094,15.9994287 C25.5405094,10.7385474 21.2604732,6.45851119 15.9997552,6.45851119 Z M16.1502526,16.7497939 L18.7873856,23.9738343 C18.8045247,24.016274 18.8254181,24.0552858 18.8484334,24.0920124 C17.9567116,24.4055759 16.9987186,24.5782725 15.9997552,24.5782725 C15.157655,24.5782725 14.3449362,24.4547079 13.5764525,24.2287986 L13.5764525,24.2287986 L16.1502526,16.7497939 Z M8.16409444,12.5082798 L12.2560905,23.7198495 C9.39468036,22.3292988 7.421401,19.3949252 7.421401,15.9994287 C7.421401,14.7557844 7.68811772,13.5751467 8.16409444,12.5082798 L8.16409444,12.5082798 Z M23.5269124,11.8837644 C24.1969688,13.1056992 24.5779461,14.5081655 24.5777829,15.9995919 C24.5777829,19.1642822 22.8624058,21.927265 20.3121108,23.4144474 L20.3121108,23.4144474 L22.9324312,15.8384846 C23.4221192,14.6149175 23.5846956,13.6363577 23.5846956,12.7658557 C23.5846956,12.4503334 23.5638023,12.1570103 23.5269124,11.8837644 Z M15.9997552,7.421401 C18.2330588,7.421401 20.2664066,8.27509039 21.7926008,9.67331282 C21.7555478,9.67119084 21.7194741,9.66645719 21.6814416,9.66645719 C20.8390151,9.66645719 20.2409428,10.4004995 20.2409428,11.1890604 C20.2409428,11.8956801 20.6485264,12.4940789 21.0833694,13.2006986 C21.4099913,13.7721645 21.7908053,14.50637 21.7908053,15.5665445 C21.7908053,16.3009133 21.5085818,17.1531336 21.1377247,18.3396476 L21.1377247,18.3396476 L20.2820766,21.1989357 L17.1820252,11.977458 C17.6981563,11.950362 18.1638496,11.8956801 18.1638496,11.8956801 C18.6259518,11.8409983 18.5715965,11.1618011 18.1088413,11.1890604 C18.1088413,11.1890604 16.7197597,11.2979343 15.8226513,11.2979343 C14.9797351,11.2979343 13.5630677,11.1890604 13.5630677,11.1890604 C13.1008023,11.1618011 13.0466101,11.8685841 13.5088756,11.8956801 C13.5088756,11.8956801 13.9464934,11.950362 14.4084324,11.977458 L14.4084324,11.977458 L15.7449542,15.6393448 L13.8676537,21.269614 L10.7437708,11.9777845 C11.2608813,11.9506884 11.7255952,11.8960066 11.7255952,11.8960066 C12.1875342,11.8413248 12.1330156,11.1621275 11.6705869,11.1893868 C11.6705869,11.1893868 10.2816685,11.2982608 9.38439691,11.2982608 C9.22328956,11.2982608 9.03361708,11.2940168 8.83235532,11.2879773 C10.3662213,8.95902128 13.0028647,7.421401 15.9997552,7.421401 Z" id="Combined-Shape" fill="#21759B"></path>
    </g>
</svg>