<?xml version="1.0" encoding="UTF-8"?>
<svg width="32px" height="32px" viewBox="0 0 32 32" version="1.1" xmlns="http://www.w3.org/2000/svg" xmlns:xlink="http://www.w3.org/1999/xlink">
    <title>01-Icons/Graphic/icon-threejs</title>
    <g id="01-Icons/Graphic/icon-threejs" stroke="none" stroke-width="1" fill="none" fill-rule="evenodd">
        <circle id="Oval" fill="#FFFFFF" fill-rule="nonzero" cx="16" cy="16" r="16"></circle>
        <g id="Group-3" transform="translate(8.000000, 8.000000)">
            <polygon id="Fill-1" fill="#FFFFFF" points="0 0 4.5558 18.1476 18 5.0976"></polygon>
            <path d="M0,0 L4.5558,18.1476 L18,5.0976 L0,0 Z M0.2871,0.2961 L4.3569,1.4481 L1.3167,4.401 L0.2871,0.2961 Z M4.7007,1.5453 L8.7732,2.6982 L5.7303,5.6484 L4.7007,1.5453 Z M1.4616,4.5486 L4.5,1.5966 L5.5314,5.7015 L1.4616,4.5486 Z M9.117,2.7954 L13.1859,3.9483 L10.1466,6.8976 L9.117,2.7954 Z M5.8725,5.7978 L8.9163,2.8467 L9.9468,6.9489 L5.8725,5.7978 Z M13.5306,4.0455 L17.5995,5.1984 L14.5602,8.1477 L13.5306,4.0455 Z M10.2906,7.0461 L13.3299,4.0959 L14.3604,8.199 L10.2906,7.0461 Z M1.4049,4.7475 L5.4738,5.9004 L2.4345,8.8497 L1.4049,4.7475 Z M5.8176,5.9976 L9.8901,7.1478 L6.8481,10.0998 L5.8176,5.9976 Z M2.5785,8.9973 L5.6178,6.048 L6.6474,10.1502 L2.5785,8.9973 Z M10.2339,7.245 L14.3037,8.397 L11.2617,11.3499 L10.2339,7.245 Z M6.9921,10.2474 L10.0332,7.2945 L11.061,11.4003 L6.9921,10.2474 Z M2.5218,9.1962 L6.5907,10.3482 L3.5523,13.2984 L2.5218,9.1962 Z M6.9354,10.4454 L11.0043,11.5983 L7.9659,14.5485 L6.9354,10.4454 Z M3.6963,13.446 L6.7356,10.4967 L7.7652,14.5989 L3.6963,13.446 Z M3.6396,13.6449 L7.7085,14.7969 L4.6701,17.7498 L3.6396,13.6449 Z" id="Fill-2" fill="#000000"></path>
        </g>
        <path d="M16,0 C24.836556,0 32,7.163444 32,16 C32,24.836556 24.836556,32 16,32 C7.163444,32 0,24.836556 0,16 C0,7.163444 7.163444,0 16,0 Z M16,1 C7.71572875,1 1,7.71572875 1,16 C1,24.2842712 7.71572875,31 16,31 C24.2842712,31 31,24.2842712 31,16 C31,7.71572875 24.2842712,1 16,1 Z" id="border" fill="#EBF8FF" fill-rule="nonzero"></path>
    </g>
</svg>