<?xml version="1.0" encoding="UTF-8"?>
<svg width="32px" height="32px" viewBox="0 0 32 32" version="1.1" xmlns="http://www.w3.org/2000/svg" xmlns:xlink="http://www.w3.org/1999/xlink">
    <title>Icon / Graphic  / icon-premiere</title>
    <g id="Icon-/-Graphic--/-icon-premiere" stroke="none" stroke-width="1" fill="none" fill-rule="evenodd">
        <circle id="Oval" fill="#00005B" fill-rule="nonzero" cx="16" cy="16" r="15.4666667"></circle>
        <g id="Pr" transform="translate(8.533333, 9.600000)" fill="#9999FF" fill-rule="nonzero">
            <path d="M0,11.2106667 L0,0.234666667 C0,0.16 0.032,0.117333333 0.106666667,0.117333333 C0.288,0.117333333 0.458666667,0.117333333 0.704,0.106666667 C0.96,0.096 1.22666667,0.096 1.51466667,0.0853333333 C1.80266667,0.0746666667 2.112,0.0746666667 2.44266667,0.064 C2.77333333,0.0533333333 3.09333333,0.0533333333 3.41333333,0.0533333333 C4.288,0.0533333333 5.01333333,0.16 5.61066667,0.384 C6.144,0.565333333 6.63466667,0.864 7.04,1.25866667 C7.38133333,1.6 7.648,2.016 7.81866667,2.47466667 C7.97866667,2.92266667 8.064,3.38133333 8.064,3.86133333 C8.064,4.77866667 7.85066667,5.536 7.424,6.13333333 C6.99733333,6.73066667 6.4,7.17866667 5.70666667,7.43466667 C4.98133333,7.70133333 4.18133333,7.79733333 3.30666667,7.79733333 C3.05066667,7.79733333 2.88,7.79733333 2.77333333,7.78666667 C2.66666667,7.776 2.51733333,7.776 2.31466667,7.776 L2.31466667,11.2 C2.32533333,11.2746667 2.272,11.3386667 2.19733333,11.3493333 C2.18666667,11.3493333 2.176,11.3493333 2.15466667,11.3493333 L0.128,11.3493333 C0.0426666667,11.3493333 0,11.3066667 0,11.2106667 Z M2.32533333,2.176 L2.32533333,5.76 C2.47466667,5.77066667 2.61333333,5.78133333 2.74133333,5.78133333 L3.30666667,5.78133333 C3.72266667,5.78133333 4.13866667,5.71733333 4.53333333,5.58933333 C4.87466667,5.49333333 5.17333333,5.29066667 5.408,5.024 C5.632,4.75733333 5.73866667,4.39466667 5.73866667,3.92533333 C5.74933333,3.59466667 5.664,3.264 5.49333333,2.976 C5.312,2.69866667 5.056,2.48533333 4.74666667,2.368 C4.352,2.208 3.92533333,2.144 3.488,2.15466667 C3.21066667,2.15466667 2.96533333,2.15466667 2.76266667,2.16533333 C2.54933333,2.15466667 2.4,2.16533333 2.32533333,2.176 L2.32533333,2.176 Z" id="Shape"></path>
            <path d="M9.55733333,2.79466667 L11.424,2.79466667 C11.5306667,2.79466667 11.616,2.86933333 11.648,2.96533333 C11.68,3.05066667 11.7013333,3.136 11.712,3.232 C11.7333333,3.33866667 11.7546667,3.456 11.7653333,3.56266667 C11.776,3.68 11.7866667,3.808 11.7866667,3.94666667 C12.1066667,3.57333333 12.4906667,3.264 12.928,3.02933333 C13.4186667,2.752 13.984,2.61333333 14.5493333,2.61333333 C14.624,2.60266667 14.688,2.656 14.6986667,2.73066667 C14.6986667,2.74133333 14.6986667,2.752 14.6986667,2.77333333 L14.6986667,4.85333333 C14.6986667,4.93866667 14.6453333,4.97066667 14.528,4.97066667 C14.144,4.96 13.7493333,4.992 13.376,5.07733333 C13.0666667,5.14133333 12.768,5.23733333 12.48,5.36533333 C12.2773333,5.46133333 12.0853333,5.58933333 11.936,5.76 L11.936,11.2 C11.936,11.3066667 11.8933333,11.3493333 11.7973333,11.3493333 L9.696,11.3493333 C9.61066667,11.36 9.536,11.3066667 9.52533333,11.2213333 C9.52533333,11.2106667 9.52533333,11.1893333 9.52533333,11.1786667 L9.52533333,5.26933333 C9.52533333,5.01333333 9.52533333,4.74666667 9.51466667,4.46933333 C9.504,4.192 9.504,3.91466667 9.49333333,3.63733333 C9.49333333,3.392 9.472,3.15733333 9.45066667,2.912 C9.44,2.85866667 9.472,2.80533333 9.52533333,2.79466667 C9.52533333,2.784 9.54666667,2.784 9.55733333,2.79466667 L9.55733333,2.79466667 Z" id="Path"></path>
        </g>
    </g>
</svg>