<svg id="레이어_1" data-name="레이어 1" xmlns="http://www.w3.org/2000/svg" viewBox="0 0 390 40"><title>대지 1</title><path d="M45.49,20c0,11.54-8.57,19.61-21,19.61H8.23V.39H24.87C37,.39,45.49,8.4,45.49,20Zm-9,.06c0-7.23-5-12.21-11.77-12.21H17.08V32.16h8C31.65,32.16,36.47,27.23,36.47,20.06Z"/><path d="M81.2.39V7.73h-21v8.52H79.07v7.34H60.18v8.68H81.81v7.34H51.32V.39Z"/><path d="M102.38,7.56c-3,0-5,1.06-5,3.19,0,7.23,20.9,3.19,20.85,17.31,0,7.68-6.67,11.82-15.36,11.82a27.55,27.55,0,0,1-17.32-6.22l3.53-7.23c4,3.59,9.75,5.88,13.9,5.88,3.64,0,5.83-1.34,5.83-3.75,0-7.4-20.9-3.08-20.9-17C87.93,4.48,94,0,103.11,0A28,28,0,0,1,118,4.26L114.6,11.6C110.45,9.13,105.52,7.56,102.38,7.56Z"/><path d="M133.32.39V39.61h-8.85V.39Z"/><path d="M168.35,19.83H176V34.9A29,29,0,0,1,160.11,40c-11.88,0-20.9-8.63-20.9-20S148.4.11,160.62.11a24.73,24.73,0,0,1,15.75,5.71l-5,6.33a16.42,16.42,0,0,0-10.76-4.37A12.09,12.09,0,0,0,148.29,20a12.15,12.15,0,0,0,12.39,12.27,17.86,17.86,0,0,0,7.68-2.13Z"/><path d="M191.83.39,210.89,25.6V.39h8.41V39.61h-8.07l-19-25.15V39.61h-8.46V.39Z"/><path d="M271.87,10.2a8.68,8.68,0,0,1-6.78,8.63,9.58,9.58,0,0,1,8.18,9.92c0,6.72-5.72,10.87-14.8,10.87H239.82V.39h18C266.49.39,271.87,4.15,271.87,10.2Zm-9.08,1.62c0-2.69-2-4.26-5.38-4.2h-8.74v8.57h8.74C260.78,16.19,262.79,14.57,262.79,11.82Zm1.35,15.8c0-2.86-2.58-4.59-6.72-4.54h-8.74v9.3h8.74C261.56,32.38,264.14,30.64,264.14,27.62Z"/><path d="M305.61,32H287.45l-3.08,7.62h-9.13l17-39.22h9.13l16.76,39.22h-9.47Zm-2.86-7.11L296.59,9.64l-6.22,15.24Z"/><path d="M335.65,7.56c-3,0-5,1.06-5,3.19,0,7.23,20.9,3.19,20.85,17.31,0,7.68-6.67,11.82-15.36,11.82a27.55,27.55,0,0,1-17.32-6.22l3.53-7.23c4,3.59,9.75,5.88,13.9,5.88,3.64,0,5.83-1.34,5.83-3.75,0-7.4-20.9-3.08-20.9-17C321.2,4.48,327.3,0,336.38,0a28,28,0,0,1,14.91,4.26l-3.42,7.34C343.72,9.13,338.79,7.56,335.65,7.56Z"/><path d="M387.61.39V7.73h-21v8.52h18.89v7.34H366.59v8.68h21.63v7.34H357.74V.39Z"/><polygon points="1.77 6.84 8.22 7.84 8.22 0.39 1.77 0.39 1.77 6.84"/><polygon points="233.37 6.84 239.82 7.84 239.82 0.39 233.37 0.39 233.37 6.84"/></svg>